<?xml version="1.0" standalone="no"?>
<!DOCTYPE svg PUBLIC "-//W3C//DTD SVG 20010904//EN"
 "http://www.w3.org/TR/2001/REC-SVG-20010904/DTD/svg10.dtd">
<svg version="1.0" xmlns="http://www.w3.org/2000/svg"
 width="640.000000pt" height="640.000000pt" viewBox="0 0 640.000000 640.000000"
 preserveAspectRatio="xMidYMid meet">
<metadata>
Created by potrace 1.14, written by Peter Selinger 2001-2017
</metadata>
<g transform="translate(0.000000,640.000000) scale(0.100000,-0.100000)"
fill="#000000" stroke="none">
<path d="M0 3200 l0 -3200 3200 0 3200 0 0 3200 0 3200 -3200 0 -3200 0 0
-3200z m5169 1164 c232 -493 421 -898 419 -899 -2 -1 -178 44 -393 101 -214
57 -395 102 -401 100 -6 -2 -21 -38 -33 -80 -54 -183 -171 -456 -273 -641
-296 -535 -720 -983 -1223 -1291 -410 -252 -857 -406 -1350 -466 -128 -15
-520 -15 -650 0 -209 25 -500 88 -630 135 -39 14 -35 15 100 16 679 5 1441
366 2040 966 363 362 654 799 848 1276 59 143 127 333 127 353 0 8 -159 58
-420 131 -272 77 -417 122 -410 129 15 15 1804 1066 1816 1066 5 0 200 -403
433 -896z"/>
</g>
</svg>
